<?xml version="1.0" encoding="utf-8"?>
<COLLADA xmlns="http://www.collada.org/2005/11/COLLADASchema" version="1.4.1" xmlns:xsi="http://www.w3.org/2001/XMLSchema-instance">
  <asset>
    <contributor>
      <author>Blender User</author>
      <authoring_tool>Blender 4.5.2 LTS commit date:2025-08-19, commit time:15:00, hash:ab25eae04993</authoring_tool>
    </contributor>
    <created>2025-10-12T16:21:26</created>
    <modified>2025-10-12T16:21:26</modified>
    <unit name="meter" meter="1"/>
    <up_axis>Z_UP</up_axis>
  </asset>
  <library_effects>
    <effect id="蓝区地面-effect">
      <profile_COMMON>
        <technique sid="common">
          <lambert>
            <emission>
              <color sid="emission">0 0 0 1</color>
            </emission>
            <diffuse>
              <color sid="diffuse">0.1369159 0.5853621 0.7587658 1</color>
            </diffuse>
            <index_of_refraction>
              <float sid="ior">1.5</float>
            </index_of_refraction>
          </lambert>
        </technique>
      </profile_COMMON>
    </effect>
    <effect id="开始蓝-effect">
      <profile_COMMON>
        <technique sid="common">
          <lambert>
            <emission>
              <color sid="emission">0 0 0 1</color>
            </emission>
            <diffuse>
              <color sid="diffuse">0 0.01341833 1.006034 1</color>
            </diffuse>
            <index_of_refraction>
              <float sid="ior">1.5</float>
            </index_of_refraction>
          </lambert>
        </technique>
      </profile_COMMON>
    </effect>
    <effect id="三区地面红-effect">
      <profile_COMMON>
        <technique sid="common">
          <lambert>
            <emission>
              <color sid="emission">0 0 0 1</color>
            </emission>
            <diffuse>
              <color sid="diffuse">0.8917336 0.5143306 0.3634478 1</color>
            </diffuse>
            <index_of_refraction>
              <float sid="ior">1.5</float>
            </index_of_refraction>
          </lambert>
        </technique>
      </profile_COMMON>
    </effect>
    <effect id="白线-effect">
      <profile_COMMON>
        <technique sid="common">
          <lambert>
            <emission>
              <color sid="emission">0 0 0 1</color>
            </emission>
            <diffuse>
              <color sid="diffuse">0.8 0.8 0.8 1</color>
            </diffuse>
            <index_of_refraction>
              <float sid="ior">1.5</float>
            </index_of_refraction>
          </lambert>
        </technique>
      </profile_COMMON>
    </effect>
    <effect id="台深绿-effect">
      <profile_COMMON>
        <technique sid="common">
          <lambert>
            <emission>
              <color sid="emission">0 0 0 1</color>
            </emission>
            <diffuse>
              <color sid="diffuse">0.0175216 0.08589306 0.005413649 1</color>
            </diffuse>
            <index_of_refraction>
              <float sid="ior">1.5</float>
            </index_of_refraction>
          </lambert>
        </technique>
      </profile_COMMON>
    </effect>
    <effect id="台浅绿-effect">
      <profile_COMMON>
        <technique sid="common">
          <lambert>
            <emission>
              <color sid="emission">0 0 0 1</color>
            </emission>
            <diffuse>
              <color sid="diffuse">0.01337394 0.1649538 0.04019934 1</color>
            </diffuse>
            <index_of_refraction>
              <float sid="ior">1.5</float>
            </index_of_refraction>
          </lambert>
        </technique>
      </profile_COMMON>
    </effect>
    <effect id="台浅黄-effect">
      <profile_COMMON>
        <technique sid="common">
          <lambert>
            <emission>
              <color sid="emission">0 0 0 1</color>
            </emission>
            <diffuse>
              <color sid="diffuse">0.3219875 0.4620911 0.09448759 1</color>
            </diffuse>
            <index_of_refraction>
              <float sid="ior">1.5</float>
            </index_of_refraction>
          </lambert>
        </technique>
      </profile_COMMON>
    </effect>
    <effect id="武器灰-effect">
      <profile_COMMON>
        <technique sid="common">
          <lambert>
            <emission>
              <color sid="emission">0 0 0 1</color>
            </emission>
            <diffuse>
              <color sid="diffuse">0.911332 1.031164 0.001335689 1</color>
            </diffuse>
            <index_of_refraction>
              <float sid="ior">1.5</float>
            </index_of_refraction>
          </lambert>
        </technique>
      </profile_COMMON>
    </effect>
    <effect id="二区地面红-effect">
      <profile_COMMON>
        <technique sid="common">
          <lambert>
            <emission>
              <color sid="emission">0 0 0 1</color>
            </emission>
            <diffuse>
              <color sid="diffuse">0.7563006 0.3804146 0.3066462 1</color>
            </diffuse>
            <index_of_refraction>
              <float sid="ior">1.5</float>
            </index_of_refraction>
          </lambert>
        </technique>
      </profile_COMMON>
    </effect>
    <effect id="开始红-effect">
      <profile_COMMON>
        <technique sid="common">
          <lambert>
            <emission>
              <color sid="emission">0 0 0 1</color>
            </emission>
            <diffuse>
              <color sid="diffuse">0.6990304 0.02957809 0.01429949 1</color>
            </diffuse>
            <index_of_refraction>
              <float sid="ior">1.5</float>
            </index_of_refraction>
          </lambert>
        </technique>
      </profile_COMMON>
    </effect>
    <effect id="三区地面蓝-effect">
      <profile_COMMON>
        <technique sid="common">
          <lambert>
            <emission>
              <color sid="emission">0 0 0 1</color>
            </emission>
            <diffuse>
              <color sid="diffuse">0.1427733 0.6650495 0.6708929 1</color>
            </diffuse>
            <index_of_refraction>
              <float sid="ior">1.5</float>
            </index_of_refraction>
          </lambert>
        </technique>
      </profile_COMMON>
    </effect>
    <effect id="一区地面蓝-effect">
      <profile_COMMON>
        <technique sid="common">
          <lambert>
            <emission>
              <color sid="emission">0 0 0 1</color>
            </emission>
            <diffuse>
              <color sid="diffuse">0.1369159 0.5853621 0.7587658 1</color>
            </diffuse>
            <index_of_refraction>
              <float sid="ior">1.5</float>
            </index_of_refraction>
          </lambert>
        </technique>
      </profile_COMMON>
    </effect>
    <effect id="一区地面红-effect">
      <profile_COMMON>
        <technique sid="common">
          <lambert>
            <emission>
              <color sid="emission">0 0 0 1</color>
            </emission>
            <diffuse>
              <color sid="diffuse">0.8287886 0.7513878 0.7059913 1</color>
            </diffuse>
            <index_of_refraction>
              <float sid="ior">1.5</float>
            </index_of_refraction>
          </lambert>
        </technique>
      </profile_COMMON>
    </effect>
    <effect id="木头-effect">
      <profile_COMMON>
        <technique sid="common">
          <lambert>
            <emission>
              <color sid="emission">0 0 0 1</color>
            </emission>
            <diffuse>
              <color sid="diffuse">0.1172862 0.0334537 0 1</color>
            </diffuse>
            <index_of_refraction>
              <float sid="ior">1.5</float>
            </index_of_refraction>
          </lambert>
        </technique>
      </profile_COMMON>
    </effect>
  </library_effects>
  <library_images/>
  <library_materials>
    <material id="蓝区地面-material" name="蓝区地面">
      <instance_effect url="#蓝区地面-effect"/>
    </material>
    <material id="开始蓝-material" name="开始蓝">
      <instance_effect url="#开始蓝-effect"/>
    </material>
    <material id="三区地面红-material" name="三区地面红">
      <instance_effect url="#三区地面红-effect"/>
    </material>
    <material id="白线-material" name="白线">
      <instance_effect url="#白线-effect"/>
    </material>
    <material id="台深绿-material" name="台深绿">
      <instance_effect url="#台深绿-effect"/>
    </material>
    <material id="台浅绿-material" name="台浅绿">
      <instance_effect url="#台浅绿-effect"/>
    </material>
    <material id="台浅黄-material" name="台浅黄">
      <instance_effect url="#台浅黄-effect"/>
    </material>
    <material id="武器灰-material" name="武器灰">
      <instance_effect url="#武器灰-effect"/>
    </material>
    <material id="二区地面红-material" name="二区地面红">
      <instance_effect url="#二区地面红-effect"/>
    </material>
    <material id="开始红-material" name="开始红">
      <instance_effect url="#开始红-effect"/>
    </material>
    <material id="三区地面蓝-material" name="三区地面蓝">
      <instance_effect url="#三区地面蓝-effect"/>
    </material>
    <material id="一区地面蓝-material" name="一区地面蓝">
      <instance_effect url="#一区地面蓝-effect"/>
    </material>
    <material id="一区地面红-material" name="一区地面红">
      <instance_effect url="#一区地面红-effect"/>
    </material>
    <material id="木头-material" name="木头">
      <instance_effect url="#木头-effect"/>
    </material>
  </library_materials>
  <library_geometries>
    <geometry id="平面_009-mesh" name="平面.009">
      <mesh>
        <source id="平面_009-mesh-positions">
          <float_array id="平面_009-mesh-positions-array" count="573">6 -1.97 0 2 6 0 1 6 0 5 -1.97 0 4.2 -2 0 3 -2 0 1.8 -2 0 2.4 -0.8 0 2.4 -2 0 3.6 2.8 0 3.6 -0.8 0 2.4 2.8 0 2.4 1.6 0 3.6 1.6 0 2.4 0.4 0 3.6 0.4 0 4.2 2.8 0 3 2.8 0 1.8 2.8 0 1 5.2 0 1.2 2.8 0 4.8 2.8 0 1.2 -2 0 4.8 -2 0 1.2 -0.8 0 1.2 0.4 0 1.2 1.6 0 4.8 -0.8 0 4.8 0.4 0 4.8 1.6 0 3.6 -2 0 1.8 6 0 1 6 0 1 5 0 2.4 2.8 0.1999999 1.8 2.8 0.1999999 2.4 1.6 0.1999999 1.2 2.8 0.1999999 1.2 1.6 0.1999999 4.8 1.6 0.1999999 3.6 1.6 0.1999999 4.8 2.8 0.1999999 4.2 2.8 0.1999999 3.6 2.8 0.1999999 3.6 1.6 0.3999999 2.4 1.6 0.3999999 3.6 2.8 0.3999999 3 2.8 0.3999999 2.4 2.8 0.3999999 3.6 0.4 0.6 3.6 1.6 0.6 2.4 0.4 0.6 2.4 1.6 0.6 2.4 0.4 0.3999999 2.4 1.6 0.3999999 1.2 0.4 0.3999999 1.2 1.6 0.3999999 3.6 0.4 0.3999999 3.6 1.6 0.3999999 4.8 1.6 0.3999999 4.8 0.4 0.3999999 3.6 -0.8 0.3999999 2.4 -0.8 0.3999999 3.6 0.4 0.3999999 2.4 0.4 0.3999999 2.4 -0.8 0.6 2.4 0.4 0.6 1.2 -0.8 0.6 1.2 0.4 0.6 4.8 -0.8 0.1999999 3.6 -0.8 0.1999999 3.6 0.4 0.1999999 4.8 0.4 0.1999999 3.6 -2 0.1999999 3 -2 0.1999999 3.6 -0.8 0.1999999 2.4 -0.8 0.1999999 2.4 -2 0.1999999 4.8 -2 0.3999999 4.2 -2 0.3999999 4.8 -0.8 0.3999999 3.6 -0.8 0.3999999 3.6 -2 0.3999999 2.4 -2 0.3999999 1.8 -2 0.3999999 2.4 -0.8 0.3999999 1.2 -2 0.3999999 1.2 -0.8 0.3999999 -2 6 0 -1 6 0 -4.2 -2 0 -3 -2 0 -1.8 -2 0 -2.4 -0.8 0 -2.4 -2 0 -3.6 2.8 0 -3.6 -0.8 0 -2.4 2.8 0 -2.4 1.6 0 -3.6 1.6 0 -2.4 0.4 0 -3.6 0.4 0 -4.2 2.8 0 -3 2.8 0 -1.8 2.8 0 -1 5.2 0 -1.2 2.8 0 -4.8 2.8 0 -1.2 -2 0 -4.8 -2 0 -1.2 -0.8 0 -1.2 0.4 0 -1.2 1.6 0 -4.8 -0.8 0 -4.8 0.4 0 -4.8 1.6 0 -3.6 -2 0 -1.8 6 0 -1 6 0 -1 5 0 -2.4 2.8 0.1999999 -1.8 2.8 0.1999999 -2.4 1.6 0.1999999 -1.2 2.8 0.1999999 -1.2 1.6 0.1999999 -4.8 1.6 0.1999999 -3.6 1.6 0.1999999 -4.8 2.8 0.1999999 -4.2 2.8 0.1999999 -3.6 2.8 0.1999999 -3.6 1.6 0.3999999 -2.4 1.6 0.3999999 -3.6 2.8 0.3999999 -3 2.8 0.3999999 -2.4 2.8 0.3999999 -3.6 0.4 0.6 -3.6 1.6 0.6 -2.4 0.4 0.6 -2.4 1.6 0.6 -2.4 0.4 0.3999999 -2.4 1.6 0.3999999 -1.2 0.4 0.3999999 -1.2 1.6 0.3999999 -3.6 0.4 0.3999999 -3.6 1.6 0.3999999 -4.8 1.6 0.3999999 -4.8 0.4 0.3999999 -3.6 -0.8 0.3999999 -2.4 -0.8 0.3999999 -3.6 0.4 0.3999999 -2.4 0.4 0.3999999 -2.4 -0.8 0.6 -2.4 0.4 0.6 -1.2 -0.8 0.6 -1.2 0.4 0.6 -4.8 -0.8 0.1999999 -3.6 -0.8 0.1999999 -3.6 0.4 0.1999999 -4.8 0.4 0.1999999 -3.6 -2 0.1999999 -3 -2 0.1999999 -3.6 -0.8 0.1999999 -2.4 -0.8 0.1999999 -2.4 -2 0.1999999 -4.8 -2 0.3999999 -4.2 -2 0.3999999 -4.8 -0.8 0.3999999 -3.6 -0.8 0.3999999 -3.6 -2 0.3999999 -2.4 -2 0.3999999 -1.8 -2 0.3999999 -2.4 -0.8 0.3999999 -1.2 -2 0.3999999 -1.2 -0.8 0.3999999 4.77 2.8 0 4.782074 2.8 0.1999999 4.794148 -2 0.3999999 4.794148 1.6 0.3999999 4.794148 -0.8 0.3999999 4.794148 0.4 0.3999999 6 -2 0 5 -2 0 4.8 -1.97 0 1.400609 -2 0.3999999 1.230002 -2 0 1.23 2.8 0 -1.23 2.8 0 -4.77 2.8 0 -1.297323 -2 0.3999999 -1.23 -2 0 -4.8 -1.97 0</float_array>
          <technique_common>
            <accessor source="#平面_009-mesh-positions-array" count="191" stride="3">
              <param name="X" type="float"/>
              <param name="Y" type="float"/>
              <param name="Z" type="float"/>
            </accessor>
          </technique_common>
        </source>
        <source id="平面_009-mesh-normals">
          <float_array id="平面_009-mesh-normals-array" count="930">1 0 0 -1 0 0 1 0 0 1 0 0 -1 0 0 0 -1 0 -1 0 0 0 1 0 0 -1 0 -1 0 0 0 1 0 0 1 0 0 0 1 0 0 1 0 0 1 0 -1 0 0 1 0 -1 0 0 0 1 0 0 0 1 0 -1 0 1 0 0 0 1 0 -1 0 0 0 0 1 0 1 0 0 1 0 0 -1 0 1 0 0 0 0 1 1 0 0 0 -1 0 0 1 0 0 0 1 1 0 0 -1 0 0 0 1 0 0 0 1 0 1 0 0 -1 0 -1 0 0 0 0 1 -1 0 0 0 1 0 1 0 0 0 0 1 1 0 0 0 -1 0 -1 0 0 0 0 1 0 -1 0 1 0 0 -1 0 0 0 0 1 0 1 0 0 -1 0 0 -1 0 -1 0 0 0 0 1 1 0 0 0 1 0 0 -1 0 0 -1 0 0 0 1 0 1 0 0 -1 0 0 -1 0 1 0 0 -1 0 0 1 0 0 -1 0 0 -1 0 0 1 0 0 0 -1 0 1 0 0 0 1 0 0 -1 0 1 0 0 0 1 0 0 1 0 0 0 1 0 0 1 0 0 1 0 -1 0 0 1 0 1 0 0 0 1 0 0 0 1 0 -1 0 -1 0 0 0 1 0 1 0 0 0 0 1 0 1 0 0 1 0 0 -1 0 -1 0 0 0 0 1 -1 0 0 0 -1 0 0 1 0 0 0 1 -1 0 0 1 0 0 0 1 0 0 0 1 0 1 0 0 -1 0 1 0 0 0 0 1 1 0 0 0 1 0 -1 0 0 0 0 1 -1 0 0 0 -1 0 1 0 0 0 0 1 0 -1 0 -1 0 0 1 0 0 0 0 1 0 1 0 0 -1 0 0 -1 0 1 0 0 0 0 1 -1 0 0 0 1 0 0 -1 0 0 -1 0 0 0 1 0 1 0 0 -1 0 0 -1 0 -1 0 0 0 0 1 0 1 0 0 0 1 0 0 1 0 0 1 0 0 1 0 0 1 0 -1 0 0 -1 0 0 -1 0 1 0 0 -1 0 0 1 0 0 1 0 0 -1 0 0 0 -1 0 -1 0 0 0 1 0 0 -1 0 -1 0 0 0 1 0 0 1 0 0 0 1 0 0 1 0 0 1 0 0 1 0 -1 0 0 1 0 0 1 0 -1 0 0 0 1 0 0 0 1 0 0 1 0 0 1 0 -1 0 1 0 0 0 1 0 -1 0 0 0 0 1 0 0 1 0 1 0 0 1 0 0 -1 0 1 0 0 0 0 1 1 0 0 0 -1 0 0 1 0 0 0 1 1 0 0 -1 0 0 0 1 0 0 0 1 0 1 0 0 1 0 0 -1 0 0 -1 0 -1 0 0 0 0 1 -1 0 0 0 1 0 1 0 0 0 0 1 1 0 0 0 -1 0 -1 0 0 0 0 1 0 -1 0 1 0 0 -1 0 0 0 0 1 0 0 1 0 1 0 0 -1 0 0 -1 0 -1 0 0 0 0 1 0 0 1 1 0 0 1 0 0 0 1 0 0 1 0 0 -1 0 0 -1 0 0 -1 0 0 0 1 0 0 1 0 0 1 0 1 0 0 -1 0 1 0 0 -1 0 0 1 0 0 -1 0 0 -1 0 0 1 0 0 0 -1 0 1 0 0 0 1 0 0 -1 0 1 0 0 0 1 0 0 1 0 0 1 0 0 0 1 0 0 1 0 0 1 0 0 1 0 -1 0 0 1 0 0 1 0 1 0 0 0 1 0 0 0 1 0 0 1 0 -1 0 -1 0 0 0 1 0 1 0 0 0 0 1 0 0 1 0 1 0 0 1 0 0 -1 0 -1 0 0 0 0 1 -1 0 0 0 -1 0 0 1 0 0 0 1 -1 0 0 1 0 0 0 1 0 0 0 1 0 1 0 0 -1 0 1 0 0 0 0 1 1 0 0 0 1 0 -1 0 0 0 0 1 -1 0 0 0 -1 0 1 0 0 0 0 1 0 -1 0 -1 0 0 1 0 0 0 0 1 0 0 1 0 1 0 0 -1 0 0 -1 0 1 0 0 0 0 1 0 0 1 -1 0 0 -1 0 0 0 1 0 0 -1 0 0 -1 0 0 0 1 0 0 1 0 0 1 0 1 0 0 -1 0 -1 0 0 0 0 1 0 1 0 0 0 1 0 -1 0 0 -1 0 0 -1 0</float_array>
          <technique_common>
            <accessor source="#平面_009-mesh-normals-array" count="310" stride="3">
              <param name="X" type="float"/>
              <param name="Y" type="float"/>
              <param name="Z" type="float"/>
            </accessor>
          </technique_common>
        </source>
        <source id="平面_009-mesh-map-0">
          <float_array id="平面_009-mesh-map-0-array" count="1860">0.6538461 1 0.6410256 0.9230769 0.6538461 0.9230769 0.935947 0.3764394 0.910306 0.2995163 0.9359471 0.2995163 0.9975904 0.07692307 0.9847699 0 0.9975904 0 0.102564 1 0.07692307 0.9230769 0.102564 0.9230769 0.9872291 0.5302855 0.9615881 0.4533625 0.9872291 0.4533625 0.4102564 0.9999999 0.3846154 0.9230769 0.4102564 0.9230769 0.6153841 0.9230769 0.5769226 0.8461538 0.6153841 0.8461538 0.8846137 0.8461538 0.8461522 0.7692307 0.8846137 0.7692307 0.9847699 0.1538462 0.9591289 0.07692307 0.9847699 0.07692307 0.935947 0.4533625 0.910306 0.3764394 0.935947 0.3764394 0.9871777 0.8461537 0.9743573 0.7692307 0.9871778 0.7692307 0.9975904 0.07692307 0.9847699 0.07807219 0.9847699 0.07692307 0.1538459 0.7692307 0.1538459 0.7692307 0.1538459 0.7692307 0.1538459 0.7692307 0.1538459 0.7692307 0.1538459 0.7692307 0.2307687 0.7692307 0.3076917 0.7692307 0.3076917 0.8076923 0.6282051 1 0.6153846 0.9230769 0.6282051 0.9230769 0.5512821 0.9980769 0.5384616 1 0.5384616 0.9615384 0.6666665 1 0.653846 0.9230769 0.6666665 0.9230769 0.5512821 0.9615384 0.5384616 0.9230769 0.5512821 0.9230769 0.07692289 0.7703799 0.07692289 0.8076922 0 0.7692307 0.5641026 1 0.5512821 0.9230769 0.5641026 0.9230769 0.6794871 1 0.6666666 0.9230769 0.6794871 0.9230769 0.9975904 0.1538461 0.9847699 0.1153846 0.9975904 0.1153846 0.6923075 1 0.679487 0.9230769 0.6923075 0.9230769 0.2307688 0.8461538 0.3076917 0.8461538 0.3076917 0.8846154 0.3076923 1 0.2820513 0.9615384 0.3076923 0.9615384 0.3076923 0.9615384 0.2820513 0.9230769 0.3076923 0.9230769 0.4358974 1 0.4102564 0.9230769 0.4358974 0.9230769 0.9872291 0.6072087 0.9615881 0.5302857 0.9872291 0.5302857 0.8333832 0.4615384 0.910306 0.3846154 0.910306 0.4615384 0.6538457 0.9230769 0.6153841 0.8461538 0.6538457 0.8461538 0.8076919 0.9230768 0.7692304 0.8461538 0.8076919 0.8461538 0.6923072 0.9230769 0.6538457 0.8461539 0.6923072 0.8461539 0.8846649 0.576923 0.807742 0.6538461 0.807742 0.576923 0.1282051 1 0.102564 0.9230769 0.1282051 0.9230769 0.1538461 1 0.1282051 0.9230769 0.1538461 0.9230769 0.9615881 0.3764394 0.9359471 0.2995163 0.9615881 0.2995163 0.3846147 0.8461538 0.4615375 0.7696059 0.4615375 0.8461538 0.9359471 0.5302856 0.910306 0.5302856 0.9103061 0.4537376 0.961588 0.4533625 0.935947 0.4533625 0.935947 0.4529874 0.1794871 1 0.1538461 0.9230769 0.1794871 0.9230769 0.910306 0.4615384 0.8333832 0.5384615 0.8333832 0.4615384 0.9872291 0.6841318 0.961588 0.6072087 0.9872291 0.6072087 0.3333333 1 0.3076923 0.9230769 0.3333333 0.9230769 0.9872291 0.7610549 0.961588 0.6841318 0.9872291 0.6841318 0.5384604 0.7692307 0.4615375 0.8461538 0.4615375 0.7692307 0.3461533 0.9230769 0.3076917 0.8461539 0.3461533 0.8461539 0.538461 0.9230769 0.4999995 0.8461538 0.538461 0.8461538 0.3846148 0.9230769 0.3461533 0.8461539 0.3846148 0.8461539 0.6153833 0.7692307 0.5384604 0.8461539 0.5384604 0.7692307 0.5769231 1 0.5641026 0.9230769 0.5769231 0.9230769 0.7051281 1 0.6923076 0.9230769 0.7051281 0.9230769 0.7179486 1 0.7051281 0.9230769 0.7179486 0.9230769 0.9103061 0.2692307 0.9103061 0.3076923 0.8333832 0.3076922 0.7948715 1 0.782051 0.9230769 0.7948715 0.9230769 0.8205125 0.9615384 0.8076921 0.9230769 0.8205125 0.9230769 0.8205125 1 0.8076921 0.9615384 0.8205125 0.9615384 0.9989157 0.2892505 0.9860953 0.2123274 0.9989158 0.2123274 0.6923062 0.8076923 0.6923062 0.8457787 0.6153833 0.8457787 0.9359471 0.5322087 0.910306 0.6072087 0.910306 0.5302856 0.9359471 0.6841318 0.910306 0.6841318 0.910306 0.6075839 0.961588 0.491824 0.935947 0.4533625 0.961588 0.4533625 0.961588 0.5302856 0.935947 0.5302856 0.935947 0.5299105 0.1538458 0.8076923 0.1538458 0.7692307 0.2307687 0.7692307 0.9615881 0.6072087 0.9359471 0.5302857 0.9615881 0.5302857 0.9860952 0.2123274 0.9604542 0.225187 0.9604542 0.2123274 0.9860952 0.2892505 0.9604542 0.250789 0.9860952 0.250789 0.9359471 0.7610549 0.910306 0.6841319 0.9359471 0.6841319 0.9871777 0.8461538 0.9999983 0.7692307 0.9999983 0.8461538 0.9219427 0.9230769 0.9475837 0.8461539 0.9475837 0.9230769 0.4871795 1 0.5 0.9230769 0.5 1 0.1794871 1 0.2051281 0.9230769 0.2051281 1 0.9732246 0.9230769 0.9988657 0.8461539 0.9988657 0.9230769 0.4358974 1 0.4615384 0.9230769 0.4615384 1 0.8846138 0.8461538 0.9230753 0.7692307 0.9230753 0.8461538 0.3846148 0.9230769 0.4230764 0.8461538 0.4230763 0.9230769 0.9615881 0.3764394 0.9872291 0.2995163 0.9872291 0.3764394 0.9230753 0.8461539 0.9487163 0.7692307 0.9487163 0.8461539 0.5 1 0.5128206 0.9230769 0.5128206 1 0.5128206 0.9615384 0.5256411 0.9615384 0.5256411 0.9980769 0.1538459 0.7692307 0.1538459 0.7692307 0.1538459 0.7692307 0.1538459 0.7692307 0.1538459 0.7692307 0.1538459 0.7692307 0.884665 0.6923077 0.8077421 0.7307692 0.8077421 0.6538462 0.628205 1 0.6410256 0.9230769 0.6410256 1 0.5769231 0.9230769 0.5897436 0.9230769 0.5897436 0.925 0.7179486 1 0.7307691 0.9230769 0.730769 1 0.5769231 1 0.5897436 0.9615384 0.5897436 1 0.7692292 0.8076922 0.6923063 0.8461538 0.6923063 0.7692307 0.5897436 1 0.6025641 0.9230769 0.6025641 1 0.730769 1 0.7435895 0.9230769 0.7435895 1 0.5128206 0.9615384 0.5256411 0.9230769 0.5256411 0.9615384 0.7435896 1 0.7564101 0.9230769 0.7564101 1 0.07692289 0.8846153 0 0.9230768 0 0.8461538 0.3333333 0.9615384 0.3589743 0.9230769 0.3589743 0.9615384 0.3333333 1 0.3589743 0.9615384 0.3589743 1 0.4615384 1 0.4871795 0.9230769 0.4871795 1 0 0.9999999 0.02564102 0.9230768 0.02564096 0.9999999 0.1538458 0.9230769 0.07692289 0.8461539 0.1538458 0.8461539 0.6923072 0.9230769 0.7307687 0.8461539 0.7307687 0.9230769 0.8076919 0.9230768 0.8461534 0.8461537 0.8461534 0.9230768 0.7307688 0.9230768 0.7692303 0.8461538 0.7692303 0.9230768 0.7692292 0.7692307 0.8461521 0.8461538 0.7692292 0.8461538 0.2051281 1 0.2307692 0.9230769 0.2307692 1 0.2307692 1 0.2564103 0.9230769 0.2564103 1 0.9359471 0.6841318 0.9615881 0.6072087 0.9615881 0.6841318 0.3076917 0.7692307 0.3846146 0.8461537 0.3076917 0.8461537 0.933488 0.07692307 0.959129 0 0.959129 0.07692307 0.9359471 0.7610549 0.9615881 0.6841319 0.9615881 0.7610549 0.2564102 1 0.2820512 0.9230769 0.2820512 1 0.1538458 0.8461537 0.2307687 0.9230768 0.1538458 0.9230768 0.02564102 1 0.05128198 0.9230769 0.05128198 1 0.3589743 1 0.3846154 0.9230769 0.3846154 1 0.05128198 1 0.07692301 0.9230769 0.07692301 1 0.8333832 0.1538461 0.9103061 0.2307692 0.8333832 0.2307692 0.4230763 0.9230769 0.4615379 0.8461538 0.4615379 0.9230769 0.538461 0.9230769 0.5769225 0.8461538 0.5769225 0.9230769 0.4615379 0.9230769 0.4999994 0.8461538 0.4999994 0.9230769 0.8333832 0 0.910306 0.07692307 0.8333832 0.07692307 0.6025641 1 0.6153846 0.9230769 0.6153846 1 0.7564101 1 0.7692306 0.9230769 0.7692306 1 0.7692306 1 0.7820511 0.9230769 0.7820511 1 0.9103061 0.1538461 0.8333832 0.1538461 0.8333832 0.1153846 0.7948716 1 0.8076921 0.9230769 0.8076921 1 0.8205125 0.9999999 0.833333 0.9615384 0.833333 0.9999999 0.8205125 0.9615384 0.833333 0.9230768 0.833333 0.9615384 0.525641 1 0.5384615 0.9230769 0.5384615 1 0.1538459 0.8461538 0.07692289 0.8461538 0.07692295 0.8076922 0.9334879 0.07692307 0.9591289 0.07692307 0.9591289 0.1519231 0.9475836 0.9230769 0.9732246 0.8461539 0.9732246 0.9230769 0.9487162 0.8461537 0.9743573 0.8076922 0.9743573 0.8461537 0.9487162 0.8076922 0.9743573 0.7692307 0.9743573 0.8076922 0.8333831 0.3076922 0.910306 0.3076922 0.910306 0.3461537 0.9591289 0.07692307 0.9847699 0 0.9847699 0.07692307 0.9872291 0.4533625 0.9615881 0.4533625 0.9615881 0.4471238 0.9615881 0.414901 0.9872291 0.3764395 0.9872291 0.414901 0.9348132 0.2892505 0.9604542 0.2123274 0.9604542 0.2892505 0.3846147 0.7696059 0.4615375 0.7692307 0.4615375 0.7696059 0.9975904 0.07884615 0.9847699 0.1153846 0.9847699 0.07807219 0.6923062 0.8457787 0.6153833 0.8461539 0.6153833 0.8457787 0.09615361 0.06410253 0.0980767 0.06410253 0.09615361 0.07692301 0.09615361 0 0.0980767 0.06410253 0.09615361 0.06410253 0.0980767 0.06410253 0.0980767 0.07692301 0.09615361 0.07692301 0.09615361 0 0.0980767 0 0.0980767 0.06410253 0.9860952 0.2142506 0.9604542 0.225187 0.9860952 0.2123274 0.9604542 0.250789 0.9860952 0.2142506 0.9860952 0.250789 0.9872291 0.4514394 0.9615881 0.4471238 0.9872291 0.414901 0.6538461 1 0.6410256 1 0.6410256 0.9230769 0.935947 0.3764394 0.910306 0.3764394 0.910306 0.2995163 0.9975904 0.07692307 0.9847699 0.07692307 0.9847699 0 0.102564 1 0.07692307 1 0.07692307 0.9230769 0.9872291 0.5302855 0.9615881 0.5302855 0.9615881 0.4533625 0.4102564 0.9999999 0.3846154 0.9999999 0.3846154 0.9230769 0.6153841 0.9230769 0.5769225 0.9230769 0.5769226 0.8461538 0.8846137 0.8461538 0.8461522 0.8461538 0.8461522 0.7692307 0.9847699 0.1538462 0.9591289 0.1538462 0.9591289 0.07692307 0.935947 0.4533625 0.910306 0.4533625 0.910306 0.3764394 0.9871777 0.8461537 0.9743573 0.8461537 0.9743573 0.7692307 0.9975904 0.07692307 0.9975904 0.07884615 0.9847699 0.07807219 0.1538459 0.7692307 0.1538459 0.7692307 0.1538459 0.7692307 0.1538459 0.7692307 0.1538459 0.7692307 0.1538459 0.7692307 0.3076917 0.8076923 0.3076917 0.8461538 0.2307687 0.8461538 0.2307687 0.8461538 0.2307687 0.7692307 0.3076917 0.8076923 0.6282051 1 0.6153846 1 0.6153846 0.9230769 0.5384616 0.9615384 0.5512821 0.9615384 0.5512821 0.9980769 0.5512821 0.9980769 0.5512821 1 0.5384616 1 0.6666665 1 0.653846 1 0.653846 0.9230769 0.5512821 0.9615384 0.5384616 0.9615384 0.5384616 0.9230769 0.07692289 0.8076922 0.07692289 0.8461538 0 0.8461538 0 0.8461538 0 0.7692307 0.07692289 0.8076922 0 0.7692307 0.07692289 0.7692307 0.07692289 0.7703799 0.5641026 1 0.5512821 1 0.5512821 0.9230769 0.6794871 1 0.6666666 1 0.6666666 0.9230769 0.9975904 0.1538461 0.9847699 0.1538461 0.9847699 0.1153846 0.6923075 1 0.679487 1 0.679487 0.9230769 0.3076917 0.8846154 0.3076917 0.9230769 0.2307687 0.9230769 0.2307687 0.9230769 0.2307688 0.8461538 0.3076917 0.8846154 0.3076923 1 0.2820513 1 0.2820513 0.9615384 0.3076923 0.9615384 0.2820513 0.9615384 0.2820513 0.9230769 0.4358974 1 0.4102564 0.9999999 0.4102564 0.9230769 0.9872291 0.6072087 0.961588 0.6072087 0.9615881 0.5302857 0.8333832 0.4615384 0.8333832 0.3846154 0.910306 0.3846154 0.6538457 0.9230769 0.6153841 0.9230769 0.6153841 0.8461538 0.8076919 0.9230768 0.7692304 0.9230768 0.7692304 0.8461538 0.6923072 0.9230769 0.6538457 0.9230769 0.6538457 0.8461539 0.8846649 0.576923 0.8846649 0.653846 0.807742 0.6538461 0.1282051 1 0.102564 1 0.102564 0.9230769 0.1538461 1 0.1282051 1 0.1282051 0.9230769 0.9615881 0.3764394 0.9359471 0.3764394 0.9359471 0.2995163 0.3846147 0.8461538 0.3846147 0.7696059 0.4615375 0.7696059 0.9103061 0.4533625 0.9359471 0.4533625 0.9103061 0.4537376 0.9359471 0.4533625 0.9359471 0.5302856 0.9103061 0.4537376 0.935947 0.3764394 0.961588 0.3764394 0.935947 0.4529874 0.961588 0.3764394 0.961588 0.4533625 0.935947 0.4529874 0.1794871 1 0.1538461 1 0.1538461 0.9230769 0.910306 0.4615384 0.9103061 0.5384615 0.8333832 0.5384615 0.9872291 0.6841318 0.961588 0.6841318 0.961588 0.6072087 0.3333333 1 0.3076923 1 0.3076923 0.9230769 0.9872291 0.7610549 0.961588 0.7610549 0.961588 0.6841318 0.5384604 0.7692307 0.5384604 0.8461538 0.4615375 0.8461538 0.3461533 0.9230769 0.3076917 0.9230769 0.3076917 0.8461539 0.538461 0.9230769 0.4999995 0.9230769 0.4999995 0.8461538 0.3846148 0.9230769 0.3461533 0.9230769 0.3461533 0.8461539 0.6153833 0.7692307 0.6153833 0.8461538 0.5384604 0.8461539 0.5769231 1 0.5641026 1 0.5641026 0.9230769 0.7051281 1 0.6923075 1 0.6923076 0.9230769 0.7179486 1 0.7051281 1 0.7051281 0.9230769 0.8333832 0.3076922 0.8333832 0.2307692 0.9103061 0.2692307 0.8333832 0.2307692 0.9103061 0.2307692 0.9103061 0.2692307 0.7948715 1 0.782051 1 0.782051 0.9230769 0.8205125 0.9615384 0.8076921 0.9615384 0.8076921 0.9230769 0.8205125 1 0.8076921 1 0.8076921 0.9615384 0.9989157 0.2892505 0.9860953 0.2892505 0.9860953 0.2123274 0.6153833 0.8457787 0.6153833 0.7692307 0.6923062 0.8076923 0.6153833 0.7692307 0.6923062 0.7692308 0.6923062 0.8076923 0.910306 0.5302856 0.9359471 0.5302856 0.9359471 0.5322087 0.9359471 0.5322087 0.9359471 0.6072087 0.910306 0.6072087 0.910306 0.6072087 0.9359471 0.6072087 0.910306 0.6075839 0.9359471 0.6072087 0.9359471 0.6841318 0.910306 0.6075839 0.961588 0.491824 0.935947 0.491824 0.935947 0.4533625 0.935947 0.491824 0.961588 0.491824 0.935947 0.5299105 0.961588 0.491824 0.961588 0.5302856 0.935947 0.5299105 0.2307687 0.7692307 0.2307687 0.8461538 0.1538458 0.8076923 0.2307687 0.8461538 0.1538458 0.8461538 0.1538458 0.8332943 0.2307687 0.8461538 0.1538458 0.8332943 0.1538458 0.8076923 0.9615881 0.6072087 0.9359471 0.6072087 0.9359471 0.5302857 0.9860952 0.2892505 0.9604542 0.2892505 0.9604542 0.250789 0.9359471 0.7610549 0.910306 0.7610549 0.910306 0.6841319 0.9871777 0.8461538 0.9871777 0.7692307 0.9999983 0.7692307 0.9219427 0.9230769 0.9219427 0.8461539 0.9475837 0.8461539 0.4871795 1 0.4871795 0.9230769 0.5 0.9230769 0.1794871 1 0.1794871 0.9230769 0.2051281 0.9230769 0.9732246 0.9230769 0.9732246 0.8461539 0.9988657 0.8461539 0.4358974 1 0.4358974 0.9230769 0.4615384 0.9230769 0.8846138 0.8461538 0.8846138 0.7692307 0.9230753 0.7692307 0.3846148 0.9230769 0.3846148 0.8461538 0.4230764 0.8461538 0.9615881 0.3764394 0.9615881 0.2995163 0.9872291 0.2995163 0.9230753 0.8461539 0.9230753 0.7692307 0.9487163 0.7692307 0.5 1 0.5 0.9230769 0.5128206 0.9230769 0.5256411 0.9980769 0.5256411 1 0.5128206 1 0.5128206 1 0.5128206 0.9615384 0.5256411 0.9980769 0.1538459 0.7692307 0.1538459 0.7692307 0.1538459 0.7692307 0.1538459 0.7692307 0.1538459 0.7692307 0.1538459 0.7692307 0.8077421 0.6538462 0.884665 0.6538462 0.884665 0.6923077 0.884665 0.6923077 0.884665 0.7307692 0.8077421 0.7307692 0.628205 1 0.628205 0.9230769 0.6410256 0.9230769 0.5897436 0.925 0.5897436 0.9615384 0.5769231 0.9615384 0.5769231 0.9615384 0.5769231 0.9230769 0.5897436 0.925 0.7179486 1 0.7179486 0.9230769 0.7307691 0.9230769 0.5769231 1 0.5769231 0.9615384 0.5897436 0.9615384 0.6923063 0.7692307 0.7692292 0.7692307 0.7692292 0.8076922 0.7692292 0.8076922 0.7692292 0.8461538 0.6923063 0.8461538 0.5897436 1 0.5897436 0.9230769 0.6025641 0.9230769 0.730769 1 0.730769 0.9230769 0.7435895 0.9230769 0.5128206 0.9615384 0.5128206 0.9230769 0.5256411 0.9230769 0.7435896 1 0.7435896 0.9230769 0.7564101 0.9230769 0 0.8461538 0.07692289 0.8461538 0.07692289 0.8846153 0.07692289 0.8846153 0.07692289 0.9230768 0 0.9230768 0.3333333 0.9615384 0.3333333 0.9230769 0.3589743 0.9230769 0.3333333 1 0.3333333 0.9615384 0.3589743 0.9615384 0.4615384 1 0.4615384 0.9230769 0.4871795 0.9230769 0 0.9999999 0 0.9230768 0.02564102 0.9230768 0.1538458 0.9230769 0.07692289 0.9230769 0.07692289 0.8461539 0.6923072 0.9230769 0.6923072 0.8461539 0.7307687 0.8461539 0.8076919 0.9230768 0.8076919 0.8461537 0.8461534 0.8461537 0.7307688 0.9230768 0.7307688 0.8461538 0.7692303 0.8461538 0.7692292 0.7692307 0.8461521 0.7692307 0.8461521 0.8461538 0.2051281 1 0.2051281 0.9230769 0.2307692 0.9230769 0.2307692 1 0.2307692 0.9230769 0.2564103 0.9230769 0.9359471 0.6841318 0.9359471 0.6072087 0.9615881 0.6072087 0.3076917 0.7692307 0.3846146 0.7692307 0.3846146 0.8461537 0.933488 0.07692307 0.933488 0 0.959129 0 0.9359471 0.7610549 0.9359471 0.6841319 0.9615881 0.6841319 0.2564102 1 0.2564102 0.9230769 0.2820512 0.9230769 0.1538458 0.8461537 0.2307687 0.8461537 0.2307687 0.9230768 0.02564102 1 0.02564102 0.9230769 0.05128198 0.9230769 0.3589743 1 0.3589743 0.9230769 0.3846154 0.9230769 0.05128198 1 0.05128198 0.9230769 0.07692301 0.9230769 0.8333832 0.1538461 0.910306 0.1538461 0.9103061 0.2307692 0.4230763 0.9230769 0.4230763 0.8461538 0.4615379 0.8461538 0.538461 0.9230769 0.538461 0.8461538 0.5769225 0.8461538 0.4615379 0.9230769 0.4615379 0.8461538 0.4999994 0.8461538 0.8333832 0 0.910306 0 0.910306 0.07692307 0.6025641 1 0.6025641 0.9230769 0.6153846 0.9230769 0.7564101 1 0.7564101 0.9230769 0.7692306 0.9230769 0.7692306 1 0.7692306 0.9230769 0.7820511 0.9230769 0.8333832 0.07692307 0.9103061 0.07692307 0.8333832 0.1153846 0.9103061 0.07692307 0.9103061 0.1538461 0.8333832 0.1153846 0.7948716 1 0.7948716 0.9230769 0.8076921 0.9230769 0.8205125 0.9999999 0.8205125 0.9615384 0.833333 0.9615384 0.8205125 0.9615384 0.8205125 0.9230768 0.833333 0.9230768 0.525641 1 0.525641 0.9230769 0.5384615 0.9230769 0.07692295 0.7692307 0.1538459 0.7692307 0.07692295 0.8076922 0.1538459 0.7692307 0.1538459 0.8461538 0.07692295 0.8076922 0.9591289 0.1519231 0.9591289 0.1538462 0.9334879 0.1538462 0.9334879 0.1538462 0.9334879 0.07692307 0.9591289 0.1519231 0.9475836 0.9230769 0.9475836 0.8461539 0.9732246 0.8461539 0.9487162 0.8461537 0.9487162 0.8076922 0.9743573 0.8076922 0.9487162 0.8076922 0.9487162 0.7692307 0.9743573 0.7692307 0.910306 0.3846153 0.8333831 0.3846153 0.910306 0.3783766 0.8333831 0.3846153 0.8333831 0.3076922 0.910306 0.3461537 0.910306 0.3783766 0.8333831 0.3846153 0.910306 0.3461537 0.9591289 0.07692307 0.9591289 0 0.9847699 0 0.9615881 0.414901 0.9615881 0.3764394 0.9872291 0.3764395 0.9348132 0.2892505 0.9348132 0.2123274 0.9604542 0.2123274 0.3846147 0.7696059 0.3846147 0.7692307 0.4615375 0.7692307 0.9975904 0.07884615 0.9975904 0.1153846 0.9847699 0.1153846 0.6923062 0.8457787 0.6923062 0.8461539 0.6153833 0.8461539 0.9860952 0.2142506 0.9604542 0.250789 0.9604542 0.225187 0.9872291 0.4533625 0.9615881 0.4471238 0.9872291 0.4514394 0.9615881 0.4471238 0.9615881 0.414901 0.9872291 0.414901</float_array>
          <technique_common>
            <accessor source="#平面_009-mesh-map-0-array" count="930" stride="2">
              <param name="S" type="float"/>
              <param name="T" type="float"/>
            </accessor>
          </technique_common>
        </source>
        <vertices id="平面_009-mesh-vertices">
          <input semantic="POSITION" source="#平面_009-mesh-positions"/>
        </vertices>
        <triangles material="蓝区地面-material" count="76">
          <input semantic="VERTEX" source="#平面_009-mesh-vertices" offset="0"/>
          <input semantic="NORMAL" source="#平面_009-mesh-normals" offset="1"/>
          <input semantic="TEXCOORD" source="#平面_009-mesh-map-0" offset="2" set="0"/>
          <p>11 0 0 36 0 1 12 0 2 10 2 6 73 2 7 30 2 8 14 8 24 55 8 25 25 8 26 15 10 30 72 10 31 28 10 32 31 12 36 2 12 37 32 12 38 19 13 39 2 13 40 33 13 41 12 15 45 38 15 46 26 15 47 29 20 60 40 20 61 13 20 62 13 23 69 43 23 70 9 23 71 13 27 81 45 27 82 12 27 83 12 34 102 53 34 103 14 34 104 15 40 120 58 40 121 13 40 122 7 42 126 64 42 127 14 42 128 14 43 129 63 43 130 15 43 131 27 50 150 70 50 151 10 50 152 10 52 156 71 52 157 15 52 158 7 54 162 75 54 163 10 54 164 8 57 171 76 57 172 7 57 173 24 64 192 85 64 193 7 64 194 122 68 204 97 68 205 98 68 206 159 70 210 96 70 211 116 70 212 141 76 228 100 76 229 111 76 230 158 78 234 101 78 235 114 78 236 89 80 240 117 80 241 118 80 242 105 81 243 89 81 244 118 81 245 124 83 249 98 83 250 112 83 251 126 88 264 115 88 265 99 88 266 129 91 273 99 91 274 95 91 275 131 95 285 99 95 286 98 95 287 139 102 306 98 102 307 100 102 308 144 108 324 101 108 325 99 108 326 150 110 330 93 110 331 100 110 332 149 111 333 100 111 334 101 111 335 156 118 354 113 118 355 96 118 356 157 120 360 96 120 361 101 120 362 161 122 366 93 122 367 96 122 368 162 125 375 94 125 376 93 125 377 171 132 396 110 132 397 93 132 398 11 146 438 34 146 439 36 146 440 10 148 444 75 148 445 73 148 446 14 154 462 53 154 463 55 154 464 15 156 468 71 156 469 72 156 470 31 158 474 1 158 475 2 158 476 19 159 477 32 159 478 2 159 479 12 162 486 36 162 487 38 162 488 29 170 510 39 170 511 40 170 512 13 173 519 40 173 520 43 173 521 13 178 534 44 178 535 45 178 536 12 185 555 54 185 556 53 185 557 15 193 579 57 193 580 58 193 581 7 195 585 62 195 586 64 195 587 14 196 588 64 196 589 63 196 590 27 203 609 69 203 610 70 203 611 10 205 615 70 205 616 71 205 617 7 208 624 76 208 625 75 208 626 8 211 633 77 211 634 76 211 635 24 224 672 87 224 673 85 224 674 122 227 681 120 227 682 97 227 683 159 229 687 161 229 688 96 229 689 141 235 705 139 235 706 100 235 707 158 237 711 157 237 712 101 237 713 89 240 720 88 240 721 117 240 722 105 241 723 119 241 724 89 241 725 124 244 732 122 244 733 98 244 734 126 251 753 125 251 754 115 251 755 129 254 762 126 254 763 99 254 764 131 259 777 130 259 778 99 259 779 139 266 798 140 266 799 98 266 800 144 272 816 143 272 817 101 272 818 150 274 822 148 274 823 93 274 824 149 275 825 150 275 826 100 275 827 156 282 846 155 282 847 113 282 848 157 284 852 156 284 853 96 284 854 161 287 861 162 287 862 93 287 863 162 290 870 163 290 871 94 290 872 171 301 903 173 301 904 110 301 905</p>
        </triangles>
        <triangles material="白线-material" count="4">
          <input semantic="VERTEX" source="#平面_009-mesh-vertices" offset="0"/>
          <input semantic="NORMAL" source="#平面_009-mesh-normals" offset="1"/>
          <input semantic="TEXCOORD" source="#平面_009-mesh-map-0" offset="2" set="0"/>
          <p>181 139 417 3 139 418 23 139 419 180 140 420 3 140 421 181 140 422 3 141 423 182 141 424 23 141 425 180 142 426 0 142 427 3 142 428</p>
        </triangles>
        <triangles material="台深绿-material" count="64">
          <input semantic="VERTEX" source="#平面_009-mesh-vertices" offset="0"/>
          <input semantic="NORMAL" source="#平面_009-mesh-normals" offset="1"/>
          <input semantic="TEXCOORD" source="#平面_009-mesh-map-0" offset="2" set="0"/>
          <p>21 11 33 175 11 34 41 11 35 36 14 42 34 14 43 35 14 44 185 16 48 37 16 49 35 16 50 26 17 51 37 17 52 20 17 53 18 18 54 34 18 55 11 18 56 175 19 57 42 19 58 39 19 59 21 21 63 39 21 64 29 21 65 9 22 66 42 22 67 16 22 68 70 49 147 72 49 148 71 49 149 28 51 153 69 51 154 27 51 155 74 53 159 73 53 160 75 53 161 5 55 165 77 55 166 8 55 167 30 56 168 74 56 169 5 56 170 128 79 237 102 79 238 187 79 239 121 82 246 122 82 247 124 82 248 123 84 252 106 84 253 186 84 254 123 85 255 112 85 256 106 85 257 120 86 258 104 86 259 97 86 260 128 87 261 125 87 262 126 87 263 125 89 267 107 89 268 115 89 269 128 90 270 95 90 271 102 90 272 158 117 351 156 117 352 157 117 353 155 119 357 114 119 358 113 119 359 161 121 363 159 121 364 160 121 365 163 123 369 91 123 370 94 123 371 160 124 372 116 124 373 91 124 374 174 137 411 42 137 412 175 137 413 21 157 471 174 157 472 175 157 473 35 160 480 37 160 481 38 160 482 38 161 483 36 161 484 35 161 485 35 163 489 18 163 490 185 163 491 185 164 492 20 164 493 37 164 494 26 165 495 38 165 496 37 165 497 18 166 498 35 166 499 34 166 500 42 167 501 43 167 502 40 167 503 40 168 504 39 168 505 42 168 506 39 169 507 41 169 508 175 169 509 21 171 513 41 171 514 39 171 515 9 172 516 43 172 517 42 172 518 70 202 606 69 202 607 72 202 608 28 204 612 72 204 613 69 204 614 75 206 618 76 206 619 74 206 620 76 207 621 77 207 622 74 207 623 5 209 627 74 209 628 77 209 629 30 210 630 73 210 631 74 210 632 187 238 714 107 238 715 127 238 716 127 239 717 128 239 718 187 239 719 124 242 726 123 242 727 121 242 728 121 243 729 120 243 730 122 243 731 186 245 735 104 245 736 121 245 737 121 246 738 123 246 739 186 246 740 123 247 741 124 247 742 112 247 743 120 248 744 121 248 745 104 248 746 126 249 747 129 249 748 128 249 749 128 250 750 127 250 751 125 250 752 125 252 756 127 252 757 107 252 758 128 253 759 129 253 760 95 253 761 158 281 843 155 281 844 156 281 845 155 283 849 158 283 850 114 283 851 163 285 855 162 285 856 160 285 857 162 286 858 161 286 859 160 286 860 163 288 864 160 288 865 91 288 866 160 289 867 159 289 868 116 289 869 174 305 915 16 305 916 42 305 917</p>
        </triangles>
        <triangles material="台浅绿-material" count="126">
          <input semantic="VERTEX" source="#平面_009-mesh-vertices" offset="0"/>
          <input semantic="NORMAL" source="#平面_009-mesh-normals" offset="1"/>
          <input semantic="TEXCOORD" source="#平面_009-mesh-map-0" offset="2" set="0"/>
          <p>30 1 3 81 1 4 10 1 5 29 3 9 60 3 10 28 3 11 12 4 12 48 4 13 11 4 14 10 5 15 62 5 16 7 5 17 22 9 27 87 9 28 24 9 29 44 24 72 46 24 73 47 24 74 11 25 75 47 25 76 17 25 77 17 26 78 46 26 79 9 26 80 9 28 84 44 28 85 13 28 86 55 33 99 54 33 100 56 33 101 25 35 105 56 35 106 26 35 107 26 36 108 54 36 109 12 36 110 57 37 111 177 37 112 58 37 113 13 38 114 58 38 115 177 38 116 28 39 117 60 39 118 179 39 119 62 41 123 63 41 124 64 41 125 15 44 132 61 44 133 10 44 134 79 58 174 176 58 175 178 58 176 182 59 177 80 59 178 78 59 179 10 60 180 81 60 181 178 60 182 4 61 183 82 61 184 30 61 185 23 62 186 78 62 187 176 62 188 84 63 189 83 63 190 85 63 191 22 65 195 183 65 196 86 65 197 8 66 198 84 66 199 6 66 200 7 67 201 83 67 202 8 67 203 167 69 207 116 69 208 96 69 209 146 71 213 115 71 214 114 71 215 134 72 216 98 72 217 97 72 218 148 73 219 96 73 220 93 73 221 173 77 231 108 77 232 110 77 233 133 92 276 130 92 277 131 92 278 133 93 279 97 93 280 103 93 281 132 94 282 103 94 283 95 94 284 130 96 288 95 96 289 99 96 290 140 101 303 141 101 304 142 101 305 142 103 309 111 103 310 112 103 311 140 104 312 112 104 313 98 104 314 145 105 315 143 105 316 144 105 317 145 106 318 99 106 319 115 106 320 143 107 321 114 107 322 101 107 323 149 109 327 148 109 328 150 109 329 147 112 336 101 112 337 96 112 338 166 126 378 164 126 379 165 126 380 166 127 381 113 127 382 190 127 383 166 128 384 96 128 385 113 128 386 168 129 387 90 129 388 116 129 389 165 130 390 109 130 391 90 130 392 171 131 393 169 131 394 170 131 395 108 133 399 172 133 400 188 133 401 170 134 402 94 134 403 92 134 404 169 135 405 93 135 406 94 135 407 179 136 408 59 136 409 177 136 410 176 138 414 80 138 415 178 138 416 184 143 429 183 143 430 22 143 431 84 144 432 184 144 433 6 144 434 189 145 435 188 145 436 92 145 437 30 147 441 82 147 442 81 147 443 29 149 447 59 149 448 60 149 449 12 150 450 45 150 451 48 150 452 10 151 453 61 151 454 62 151 455 22 155 465 86 155 466 87 155 467 47 174 522 48 174 523 45 174 524 45 175 525 44 175 526 47 175 527 11 176 528 48 176 529 47 176 530 17 177 531 47 177 532 46 177 533 9 179 537 46 179 538 44 179 539 55 184 552 53 184 553 54 184 554 25 186 558 55 186 559 56 186 560 26 187 561 56 187 562 54 187 563 57 188 564 179 188 565 177 188 566 59 189 567 29 189 568 177 189 569 29 190 570 13 190 571 177 190 572 57 191 573 15 191 574 179 191 575 15 192 576 28 192 577 179 192 578 62 194 582 61 194 583 63 194 584 15 197 591 63 197 592 61 197 593 178 212 636 81 212 637 79 212 638 81 213 639 82 213 640 79 213 641 78 214 642 23 214 643 182 214 644 182 215 645 27 215 646 80 215 647 80 216 648 27 216 649 178 216 650 27 217 651 10 217 652 178 217 653 4 218 654 79 218 655 82 218 656 79 219 657 4 219 658 176 219 659 4 220 660 23 220 661 176 220 662 85 221 663 87 221 664 84 221 665 87 222 666 86 222 667 183 222 668 87 223 669 183 223 670 84 223 671 8 225 675 83 225 676 84 225 677 7 226 678 85 226 679 83 226 680 167 228 684 168 228 685 116 228 686 146 230 690 145 230 691 115 230 692 134 231 693 131 231 694 98 231 695 148 232 696 147 232 697 96 232 698 173 236 708 172 236 709 108 236 710 131 255 765 134 255 766 133 255 767 133 256 768 132 256 769 130 256 770 133 257 771 134 257 772 97 257 773 132 258 774 133 258 775 103 258 776 130 260 780 132 260 781 95 260 782 140 265 795 139 265 796 141 265 797 142 267 801 141 267 802 111 267 803 140 268 804 142 268 805 112 268 806 145 269 807 146 269 808 143 269 809 145 270 810 144 270 811 99 270 812 143 271 813 146 271 814 114 271 815 149 273 819 147 273 820 148 273 821 147 276 828 149 276 829 101 276 830 168 291 873 167 291 874 165 291 875 167 292 876 166 292 877 165 292 878 190 293 879 109 293 880 164 293 881 164 294 882 166 294 883 190 294 884 166 295 885 167 295 886 96 295 887 168 296 888 165 296 889 90 296 890 165 297 891 164 297 892 109 297 893 172 298 894 173 298 895 188 298 896 173 299 897 171 299 898 170 299 899 188 300 900 173 300 901 170 300 902 170 302 906 169 302 907 94 302 908 169 303 909 171 303 910 93 303 911 179 304 912 60 304 913 59 304 914 176 306 918 78 306 919 80 306 920 184 307 921 84 307 922 183 307 923 108 308 924 188 308 925 189 308 926 188 309 927 170 309 928 92 309 929</p>
        </triangles>
        <triangles material="台浅黄-material" count="40">
          <input semantic="VERTEX" source="#平面_009-mesh-vertices" offset="0"/>
          <input semantic="NORMAL" source="#平面_009-mesh-normals" offset="1"/>
          <input semantic="TEXCOORD" source="#平面_009-mesh-map-0" offset="2" set="0"/>
          <p>14 6 18 52 6 19 12 6 20 25 7 21 66 7 22 14 7 23 51 29 87 50 29 88 52 29 89 13 30 90 49 30 91 15 30 92 15 31 93 51 31 94 14 31 95 12 32 96 50 32 97 13 32 98 67 45 135 66 45 136 68 45 137 14 46 138 65 46 139 7 46 140 7 47 141 67 47 142 24 47 143 24 48 144 68 48 145 25 48 146 138 74 222 100 74 223 98 74 224 152 75 225 111 75 226 100 75 227 136 97 291 137 97 292 138 97 293 135 98 294 99 98 295 101 98 296 137 99 297 101 99 298 100 99 299 136 100 300 98 100 301 99 100 302 152 113 339 153 113 340 154 113 341 151 114 342 100 114 343 93 114 344 153 115 345 93 115 346 110 115 347 154 116 348 110 116 349 111 116 350 14 152 456 51 152 457 52 152 458 25 153 459 68 153 460 66 153 461 51 180 540 49 180 541 50 180 542 13 181 543 50 181 544 49 181 545 15 182 546 49 182 547 51 182 548 12 183 549 52 183 550 50 183 551 67 198 594 65 198 595 66 198 596 14 199 597 66 199 598 65 199 599 7 200 600 65 200 601 67 200 602 24 201 603 67 201 604 68 201 605 138 233 699 137 233 700 100 233 701 152 234 702 154 234 703 111 234 704 136 261 783 135 261 784 137 261 785 135 262 786 136 262 787 99 262 788 137 263 789 135 263 790 101 263 791 136 264 792 138 264 793 98 264 794 152 277 831 151 277 832 153 277 833 151 278 834 152 278 835 100 278 836 153 279 837 151 279 838 93 279 839 154 280 840 153 280 841 110 280 842</p>
        </triangles>
      </mesh>
    </geometry>
  </library_geometries>
  <library_visual_scenes>
    <visual_scene id="Scene" name="Scene">
      <node id="主地图" name="主地图" type="NODE">
        <matrix sid="transform">1 0 0 0 0 1 0 0 0 0 1 0 0 0 0 1</matrix>
        <instance_geometry url="#平面_009-mesh" name="主地图">
          <bind_material>
            <technique_common>
              <instance_material symbol="蓝区地面-material" target="#蓝区地面-material">
                <bind_vertex_input semantic="UV贴图" input_semantic="TEXCOORD" input_set="0"/>
              </instance_material>
              <instance_material symbol="开始蓝-material" target="#开始蓝-material">
                <bind_vertex_input semantic="UV贴图" input_semantic="TEXCOORD" input_set="0"/>
              </instance_material>
              <instance_material symbol="三区地面红-material" target="#三区地面红-material">
                <bind_vertex_input semantic="UV贴图" input_semantic="TEXCOORD" input_set="0"/>
              </instance_material>
              <instance_material symbol="白线-material" target="#白线-material">
                <bind_vertex_input semantic="UV贴图" input_semantic="TEXCOORD" input_set="0"/>
              </instance_material>
              <instance_material symbol="台深绿-material" target="#台深绿-material">
                <bind_vertex_input semantic="UV贴图" input_semantic="TEXCOORD" input_set="0"/>
              </instance_material>
              <instance_material symbol="台浅绿-material" target="#台浅绿-material">
                <bind_vertex_input semantic="UV贴图" input_semantic="TEXCOORD" input_set="0"/>
              </instance_material>
              <instance_material symbol="台浅黄-material" target="#台浅黄-material">
                <bind_vertex_input semantic="UV贴图" input_semantic="TEXCOORD" input_set="0"/>
              </instance_material>
              <instance_material symbol="武器灰-material" target="#武器灰-material">
                <bind_vertex_input semantic="UV贴图" input_semantic="TEXCOORD" input_set="0"/>
              </instance_material>
              <instance_material symbol="二区地面红-material" target="#二区地面红-material">
                <bind_vertex_input semantic="UV贴图" input_semantic="TEXCOORD" input_set="0"/>
              </instance_material>
              <instance_material symbol="开始红-material" target="#开始红-material">
                <bind_vertex_input semantic="UV贴图" input_semantic="TEXCOORD" input_set="0"/>
              </instance_material>
              <instance_material symbol="三区地面蓝-material" target="#三区地面蓝-material">
                <bind_vertex_input semantic="UV贴图" input_semantic="TEXCOORD" input_set="0"/>
              </instance_material>
              <instance_material symbol="一区地面蓝-material" target="#一区地面蓝-material">
                <bind_vertex_input semantic="UV贴图" input_semantic="TEXCOORD" input_set="0"/>
              </instance_material>
              <instance_material symbol="一区地面红-material" target="#一区地面红-material">
                <bind_vertex_input semantic="UV贴图" input_semantic="TEXCOORD" input_set="0"/>
              </instance_material>
              <instance_material symbol="木头-material" target="#木头-material">
                <bind_vertex_input semantic="UV贴图" input_semantic="TEXCOORD" input_set="0"/>
              </instance_material>
            </technique_common>
          </bind_material>
        </instance_geometry>
      </node>
    </visual_scene>
  </library_visual_scenes>
  <scene>
    <instance_visual_scene url="#Scene"/>
  </scene>
</COLLADA>